<?xml version="1.0" encoding="UTF-8" standalone="no"?>
<!-- Created with Inkscape (http://www.inkscape.org/) -->

<svg
   width="210mm"
   height="297mm"
   viewBox="0 0 210 297"
   version="1.1"
   id="svg1"
   inkscape:version="1.4 (e7c3feb100, 2024-10-09)"
   sodipodi:docname="boshedron.svg"
   xmlns:inkscape="http://www.inkscape.org/namespaces/inkscape"
   xmlns:sodipodi="http://sodipodi.sourceforge.net/DTD/sodipodi-0.dtd"
   xmlns="http://www.w3.org/2000/svg"
   xmlns:svg="http://www.w3.org/2000/svg">
  <sodipodi:namedview
     id="namedview1"
     pagecolor="#ffffff"
     bordercolor="#000000"
     borderopacity="0.25"
     inkscape:showpageshadow="2"
     inkscape:pageopacity="0.0"
     inkscape:pagecheckerboard="0"
     inkscape:deskcolor="#d1d1d1"
     inkscape:document-units="mm"
     inkscape:zoom="1.0948152"
     inkscape:cx="362.16159"
     inkscape:cy="470.85573"
     inkscape:window-width="1912"
     inkscape:window-height="1024"
     inkscape:window-x="4"
     inkscape:window-y="52"
     inkscape:window-maximized="1"
     inkscape:current-layer="layer1" />
  <defs
     id="defs1">
    <filter
       style="color-interpolation-filters:sRGB"
       id="filter253"
       inkscape:label="filter1" />
    <filter
       inkscape:label="Lapping"
       inkscape:menu="Distort"
       inkscape:menu-tooltip="Something like a water noise"
       height="1.0903762"
       y="-0.045188064"
       width="1.0822409"
       x="-0.041121047"
       style="color-interpolation-filters:sRGB;"
       id="filter256">
      <feTurbulence
         numOctaves="5"
         seed="0"
         type="fractalNoise"
         baseFrequency="0.1"
         result="result1"
         id="feTurbulence256" />
      <feGaussianBlur
         stdDeviation="2"
         result="result2"
         id="feGaussianBlur256" />
      <feDisplacementMap
         scale="50"
         yChannelSelector="B"
         xChannelSelector="R"
         in="SourceGraphic"
         in2="result2"
         id="feDisplacementMap256" />
    </filter>
    <filter
       inkscape:label="Lapping"
       inkscape:menu="Distort"
       inkscape:menu-tooltip="Something like a water noise"
       height="1.1150534"
       y="-0.057526679"
       width="1.1150534"
       x="-0.057526679"
       style="color-interpolation-filters:sRGB;"
       id="filter275">
      <feTurbulence
         numOctaves="5"
         seed="0"
         type="fractalNoise"
         baseFrequency="0.1"
         result="result1"
         id="feTurbulence275" />
      <feGaussianBlur
         stdDeviation="2"
         result="result2"
         id="feGaussianBlur275" />
      <feDisplacementMap
         scale="50"
         yChannelSelector="B"
         xChannelSelector="R"
         in="SourceGraphic"
         in2="result2"
         id="feDisplacementMap275" />
    </filter>
  </defs>
  <g
     inkscape:label="Layer 1"
     inkscape:groupmode="layer"
     id="layer1">
    <circle
       style="fill:#ffdd55;stroke:#000000;stroke-width:2;stroke-linecap:round;stroke-linejoin:round;stroke-dasharray:none;paint-order:fill markers stroke;filter:url(#filter275)"
       id="path256"
       r="50.411392"
       cy="110.90507"
       cx="104.06962"
       transform="matrix(1.2188844,0,0,1.2188844,-22.779217,-24.27539)" />
    <path
       style="stroke-width:0.624944;stroke-linejoin:round"
       d="m 132.94083,126.76439 -29.01718,11.23679 a 0.37455388,0.37455388 0 0 0 -0.16112,0.57856 l 1.43054,1.85286 a 0.37455388,0.37455388 0 0 0 0.42477,0.12206 c 9.62585,-3.51424 18.50879,-8.59325 27.62447,-13.10551 a 0.37455388,0.37455388 0 0 0 -0.30148,-0.68476 z m -6.64614,3.37739 c -6.78124,3.48825 -13.54815,6.97834 -20.68296,9.60729 l -0.95084,-1.23036 z"
       id="path12" />
    <path
       style="stroke-width:0.624944;stroke-linejoin:round"
       d="m 123.73389,103.86483 c -0.22791,-0.003 -0.39488,0.10028 -0.53707,0.21239 -0.28435,0.22421 -0.52051,0.55476 -0.74822,0.90934 -0.44779,0.69729 -0.80434,1.46402 -0.81657,1.49035 l -17.90001,31.68905 a 0.37455388,0.37455388 0 0 0 0.46138,0.5334 l 29.06722,-11.26608 a 0.37455388,0.37455388 0 0 0 0.2136,-0.48824 c 0,0 -2.18716,-5.49056 -4.42587,-11.07078 -1.11935,-2.79011 -2.25246,-5.60254 -3.13082,-7.76298 -0.43918,-1.08022 -0.81437,-1.99748 -1.09365,-2.66822 -0.13965,-0.33537 -0.25511,-0.60871 -0.34299,-0.81169 -0.0879,-0.20298 -0.13189,-0.31038 -0.18919,-0.41012 a 0.37455388,0.37455388 0 0 0 -0.001,0 c -0.10828,-0.18803 -0.32869,-0.35299 -0.55659,-0.35642 z m -0.0635,0.79217 c 0.0172,0.0368 0.054,0.11212 0.12329,0.27219 0.0854,0.19726 0.19922,0.46838 0.3381,0.80193 0.27777,0.66711 0.65367,1.58294 1.09243,2.66212 0.87752,2.15836 2.00925,4.96976 3.12838,7.75931 2.1672,5.40197 4.15312,10.38575 4.28551,10.71803 l -27.73799,10.75222 17.38491,-30.7785 a 0.37455388,0.37455388 0 0 0 0.0134,-0.0256 c 0,0 0.36404,-0.78045 0.77996,-1.4281 0.20796,-0.32382 0.44036,-0.61317 0.58222,-0.72503 0.0114,-0.009 3.6e-4,-0.002 0.01,-0.009 z"
       id="path13" />
    <path
       style="stroke-width:0.624944;stroke-linejoin:round"
       d="m 103.69296,78.362971 c -0.0806,0.0059 -0.18187,0.04028 -0.18187,0.04028 a 0.37455388,0.37455388 0 0 0 -0.14525,0.581002 c 0,0 2.81979,3.473263 5.70261,7.028179 2.88283,3.554916 5.85499,7.225509 6.07856,7.511533 a 0.37455388,0.37455388 0 0 0 0.003,0.0012 l 8.30004,10.481235 a 0.37455388,0.37455388 0 0 0 0.57734,0.0122 l 7.93874,-9.228909 a 0.37455388,0.37455388 0 0 0 0.0354,-0.146471 l 0.0329,0.02685 c 5e-5,-1.31e-4 -0.0112,-0.06254 -0.0146,-0.10131 a 0.37455388,0.37455388 0 0 0 -0.0244,-0.169662 c -0.005,-0.0255 -0.004,-0.06324 -0.01,-0.07079 -0.0258,-0.03648 -0.0399,-0.04787 -0.0512,-0.05859 -0.0227,-0.02145 -0.0346,-0.03018 -0.0464,-0.03906 -0.0237,-0.01775 -0.0451,-0.03229 -0.072,-0.05004 -0.0539,-0.0355 -0.12619,-0.0809 -0.22093,-0.139148 -0.18949,-0.116489 -0.46435,-0.281252 -0.81536,-0.489458 -0.70202,-0.416413 -1.7068,-1.00478 -2.916,-1.708832 -2.41839,-1.408102 -5.65555,-3.27913 -8.9262,-5.163111 -3.27065,-1.88398 -6.5748,-3.780401 -9.12394,-5.237568 -1.27457,-0.728583 -2.36069,-1.347575 -3.16011,-1.800375 -0.79943,-0.4528 -1.28532,-0.726469 -1.45251,-0.810474 -0.5622,-0.282884 -0.93674,-0.401269 -1.19618,-0.446738 -0.12973,-0.02274 -0.2307,-0.02782 -0.31125,-0.02197 z m 1.00577,1.074123 c 0.0751,0.03444 0.0785,0.02008 0.16478,0.06347 0.0852,0.04282 0.62286,0.341445 1.42077,0.793387 0.79791,0.45194 1.88362,1.070862 3.15768,1.799155 2.54812,1.456583 5.85027,3.351521 9.12027,5.235126 3.27,1.883605 6.50718,3.756063 8.92376,5.163111 1.20829,0.703525 2.21252,1.290791 2.91112,1.70517 0.31225,0.185215 0.5397,0.321912 0.72015,0.43209 l -7.3614,8.557587 -8.01808,-10.123609 -0.001,-0.0024 c -0.28607,-0.365913 -3.20373,-3.964765 -6.08588,-7.518858 -2.50347,-3.087132 -4.34889,-5.361123 -4.95195,-6.104189 z"
       id="path14" />
    <path
       style="stroke-width:0.624944;stroke-linejoin:round"
       d="m 103.27552,78.355647 c -0.27228,0.03565 -0.61243,0.181322 -1.1913,0.576121 L 77.885945,95.42443 a 0.34396293,0.34396293 0 0 0 -0.111073,0.444296 l 4.550373,8.645464 a 0.34396293,0.34396293 0 0 0 0.572458,0.0549 l 8.630818,-10.765648 a 0.34396293,0.34396293 0 0 0 0.0012,-0.0012 c 0.232496,-0.293596 3.328387,-4.041063 6.328779,-7.66777 3.00039,-3.626707 5.93452,-7.169767 5.93452,-7.169768 a 0.34396293,0.34396293 0 0 0 0.0464,-0.366178 c 0,0 -0.0347,-0.06252 -0.0671,-0.09765 -0.0324,-0.03513 -0.0759,-0.06892 -0.12816,-0.09521 -0.10452,-0.05258 -0.23248,-0.06787 -0.36862,-0.05005 z m -0.83611,1.166888 c -0.65415,0.789964 -2.526815,3.050594 -5.110627,6.173763 -3.000535,3.626879 -6.039135,7.300663 -6.338543,7.678755 l -8.300038,10.354297 -4.163445,-7.909447 z"
       id="path15" />
    <path
       style="stroke-width:0.624944;stroke-linejoin:round"
       d="m 103.51841,78.339779 a 0.37455388,0.37455388 0 0 0 -0.27585,0.136707 c 0,0 -4.994662,6.090577 -10.039384,12.271849 -2.522361,3.090637 -5.057134,6.203879 -6.986679,8.590539 -0.964771,1.193326 -1.777518,2.204526 -2.363069,2.941626 -0.292775,0.36856 -0.529193,0.66887 -0.6994,0.88982 -0.0851,0.11047 -0.153919,0.20085 -0.20628,0.27219 -0.05236,0.0713 -0.0808,0.10728 -0.119619,0.17821 -0.110255,0.20144 -0.175868,0.35589 -0.205059,0.5102 -0.02919,0.15433 -0.01419,0.34776 0.111074,0.49068 0.202955,0.23157 0.394881,0.18563 0.47481,0.15868 l 40.405316,-0.73114 a 0.37455388,0.37455388 0 0 0 0.27952,-0.13182 c 3e-4,-3.5e-4 0.0888,-0.29121 0.0781,-0.33444 -0.0107,-0.0432 -0.0202,-0.0591 -0.0269,-0.0732 -0.0132,-0.0282 -0.0204,-0.04 -0.0281,-0.0525 -0.0155,-0.025 -0.0304,-0.046 -0.0488,-0.072 -0.0367,-0.052 -0.0866,-0.12003 -0.15257,-0.2075 -0.13193,-0.17494 -0.32543,-0.42514 -0.57246,-0.74212 -0.49406,-0.63395 -1.20343,-1.5335 -2.05914,-2.613289 -1.71142,-2.15958 -4.00783,-5.038712 -6.33,-7.941182 -2.32216,-2.90247 -4.67028,-5.828291 -6.48502,-8.081551 -0.90736,-1.12663 -1.68093,-2.085487 -2.25199,-2.789057 -0.57106,-0.70357 -0.92111,-1.132208 -1.0436,-1.269417 -0.80683,-0.902106 -1.16934,-1.284065 -1.16934,-1.284065 a 0.37455388,0.37455388 0 0 0 -0.28561,-0.117177 z m 0.0293,0.947181 c 0.13598,0.145727 0.26454,0.27874 0.86784,0.953284 0.0656,0.07346 0.45041,0.540292 1.02042,1.242564 0.57,0.702273 1.34255,1.660429 2.24955,2.786616 1.81402,2.252375 4.16209,5.177221 6.4838,8.07911 2.3217,2.901889 4.61744,5.780804 6.32755,7.938746 0.85506,1.07896 1.56388,1.9776 2.05548,2.6084 0.14013,0.17981 0.2192,0.28349 0.32224,0.41745 l -39.410529,0.71405 c 0.01158,-0.0232 0.0063,-0.0212 0.02075,-0.0476 -0.01402,0.0256 0.02061,-0.0306 0.06713,-0.094 0.04652,-0.0634 0.112268,-0.14977 0.195295,-0.25755 0.166056,-0.21556 0.400571,-0.51431 0.692077,-0.88127 0.583014,-0.73391 1.395342,-1.74429 2.359408,-2.936746 1.928131,-2.384912 4.46225,-5.497918 6.984237,-8.588097 4.905995,-6.011292 9.502572,-11.615262 9.764752,-11.934966 z"
       id="path16" />
    <path
       style="stroke-width:0.624944;stroke-linejoin:round"
       d="m 77.235369,128.24619 a 0.37458956,0.37458956 0 0 0 -0.268531,0.6994 l 28.381252,11.60419 a 0.37455388,0.37455388 0 0 0 0.43941,-0.57368 l -1.5233,-2.00422 -0.0256,0.0391 a 0.37455388,0.37455388 0 0 0 -0.14525,-0.16478 z m 15.456378,6.31902 11.045153,3.94862 0.62494,0.8239 z"
       id="path17" />
    <path
       style="stroke-width:0.624944;stroke-linejoin:round"
       d="m 77.270766,128.15587 a 0.34403026,0.34403026 0 0 0 -0.234354,0.64692 l 26.916528,9.75498 a 0.34396293,0.34396293 0 0 0 0.33567,-0.0635 0.34396293,0.34396293 0 0 0 -0.10131,-0.58344 z"
       id="path18" />
    <path
       style="stroke-width:0.624944;stroke-linejoin:round"
       d="m 131.82276,94.323454 a 0.37455388,0.37455388 0 0 0 -0.40645,0.107413 l -7.86185,9.033613 a 0.37455388,0.37455388 0 0 0 -0.0647,0.38449 l 9.26552,23.38291 a 0.37455388,0.37455388 0 0 0 0.72138,-0.15501 l -0.83245,-19.05835 -0.57124,-13.356961 a 0.37455388,0.37455388 0 0 0 -0.25022,-0.338105 z m -0.45772,1.307256 0.53095,12.41954 0.73481,16.83687 -8.36107,-21.10284 z"
       id="path19" />
    <path
       style="stroke-width:0.624944;stroke-linejoin:round"
       d="m 123.68018,103.23135 c -0.0308,0.002 -0.056,0.007 -0.0769,0.0122 -0.0418,0.0111 -0.0677,0.0244 -0.0879,0.0354 -0.0161,0.009 -0.0108,0.01 -0.022,0.0171 l -40.855708,0.74334 a 0.37455388,0.37455388 0 0 0 -0.279516,0.13182 c -2.99e-4,3.5e-4 -0.08659,0.30011 -0.07812,0.33444 0.0085,0.0343 0.01468,0.0469 0.01953,0.0586 0.0097,0.0235 0.01629,0.0355 0.02319,0.0488 0.01381,0.0267 0.02906,0.0536 0.04883,0.0879 0.03953,0.0687 0.09565,0.16356 0.169662,0.28562 0.148035,0.2441 0.366109,0.59637 0.644474,1.04361 0.556729,0.89447 1.355142,2.16714 2.317907,3.69474 1.92553,3.05518 4.505684,7.12971 7.103856,11.23312 2.598171,4.1034 5.215395,8.23561 7.214929,11.404 0.999766,1.5842 1.844446,2.92788 2.455836,3.9059 0.30569,0.48902 0.55286,0.88655 0.73114,1.17665 0.17827,0.29012 0.29906,0.49396 0.31002,0.51509 h -0.001 c 0.13878,0.26766 0.24786,0.43848 0.37228,0.56759 0.0622,0.0645 0.13002,0.12312 0.23192,0.16355 0.1019,0.0404 0.25293,0.0451 0.36617,-0.007 0.22649,-0.10492 0.25256,-0.26267 0.27708,-0.3491 0.008,-0.0297 0.006,-0.0309 0.01,-0.0549 0.0288,-0.0509 4.68063,-8.2666 9.41077,-16.62326 2.37238,-4.19125 4.75764,-8.40508 6.57412,-11.6164 1.81649,-3.21131 3.04781,-5.38889 3.16622,-5.60496 0.12972,-0.23687 0.21011,-0.39465 0.26243,-0.50654 0.0262,-0.0559 0.0452,-0.0991 0.0611,-0.14403 0.0158,-0.0449 0.0534,-0.0586 0.0281,-0.22826 -0.003,-0.0212 -0.008,-0.0459 -0.0183,-0.0744 -0.0103,-0.0286 -0.0497,-0.0935 -0.05,-0.094 -3.8e-4,-5.1e-4 -0.0972,-0.0924 -0.0977,-0.0928 -4.8e-4,-3.2e-4 -0.1227,-0.0536 -0.12328,-0.0537 -5.7e-4,-1.4e-4 -0.0778,-0.0115 -0.10863,-0.01 z m 0.23314,0.67743 c -0.004,0.006 0.003,0.005 -0.0391,0.0281 -0.0167,0.009 -0.0405,0.0202 -0.0794,0.0305 a 0.37455388,0.37455388 0 0 0 0.11841,-0.0586 z m -0.83123,0.14281 c -0.006,0.0111 -0.006,0.0117 -0.0122,0.0232 -0.0798,0.14569 -1.34492,2.38523 -3.16134,5.59642 -1.81641,3.2112 -4.20175,7.42518 -6.57411,11.61639 -4.67151,8.25308 -9.15325,16.16695 -9.29482,16.41699 -0.0243,-0.0422 -0.0285,-0.0358 -0.0561,-0.0891 -0.0541,-0.10435 -0.15556,-0.26962 -0.33566,-0.5627 -0.1801,-0.29308 -0.42733,-0.69285 -0.73358,-1.18275 -0.6125,-0.9798 -1.45945,-2.32248 -2.4595,-3.90712 -2.000085,-3.16928 -4.616781,-7.30187 -7.214926,-11.40523 -2.598144,-4.10336 -5.176591,-8.17784 -7.101415,-11.23191 -0.962411,-1.52703 -1.761477,-2.79904 -2.316686,-3.69107 -0.230119,-0.36972 -0.38942,-0.62968 -0.529738,-0.8593 z"
       id="path20" />
    <path
       style="stroke-width:0.624944;stroke-linejoin:round"
       d="m 77.910358,95.381709 a 0.34396293,0.34396293 0 0 0 -0.263649,0.322237 L 76.56038,127.24775 c -2.7e-5,6.3e-4 2.9e-5,5.8e-4 0,0.001 v 0.002 c -0.02981,0.69591 0.02559,1.06402 0.137928,1.31336 0.05633,0.12501 0.134879,0.22546 0.234354,0.28683 0.04974,0.0307 0.10317,0.0494 0.150133,0.0586 0.04696,0.009 0.117177,0.006 0.117177,0.006 a 0.34396293,0.34396293 0 0 0 0.299046,-0.26975 c 0,0 0.905842,-4.19321 1.847978,-8.48679 0.471068,-2.14679 0.951504,-4.31823 1.331668,-6.00288 0.190082,-0.84232 0.354647,-1.5633 0.480914,-2.09698 0.126266,-0.53368 0.229748,-0.91975 0.240457,-0.94962 a 0.34396293,0.34396293 0 0 0 0.0085,-0.0281 l 1.751551,-6.5912 a 0.34396293,0.34396293 0 0 0 -0.03295,-0.25633 l -4.835993,-8.685959 a 0.34396293,0.34396293 0 0 0 -0.380825,-0.167222 z m 0.380825,1.580669 4.168327,7.485902 -1.716155,6.45694 0.0085,-0.0269 c -0.06154,0.17162 -0.133937,0.48494 -0.261207,1.02286 -0.12727,0.53792 -0.292987,1.26071 -0.483355,2.1043 -0.380736,1.68718 -0.861667,3.85905 -1.332888,6.00654 -0.712889,3.24884 -1.102682,5.05981 -1.39758,6.42154 z"
       id="path21"
       inkscape:export-filename="boshedron.png"
       inkscape:export-xdpi="96"
       inkscape:export-ydpi="96" />
    <path
       style="fill:#ffffff;stroke:#000000;stroke-width:2;stroke-linecap:round;stroke-linejoin:round;paint-order:fill markers stroke"
       d="m 77.639722,111.10217 c 0,0 -4.59172,-14.500161 -23.6836,-18.125204 -19.09188,-3.62504 -26.583629,5.800068 -26.825299,9.425124 -0.24167,3.62503 -0.24167,4.5917 5.80006,6.76673 6.041739,2.17502 10.391789,-8.21675 10.391789,-8.21675 0,0 -4.35005,11.35845 2.90003,13.29181 7.25008,1.93335 7.00841,-9.18344 7.00841,-9.18344 0,0 -2.90003,14.74183 4.35005,10.15011 7.25008,-4.59171 4.59172,-11.60013 4.59172,-11.60013 z"
       id="path1" />
    <path
       style="fill:#ffffff;stroke:#000000;stroke-width:2;stroke-linecap:round;stroke-linejoin:round;paint-order:fill markers stroke"
       d="m 130.07059,110.49415 c 0,0 4.59172,-14.500153 23.6836,-18.125196 19.09188,-3.62504 26.58363,5.800068 26.8253,9.425096 0.24167,3.62505 0.24167,4.59172 -5.80006,6.76675 -6.04174,2.17502 -10.39179,-8.21677 -10.39179,-8.21677 0,0 4.35005,11.35847 -2.90003,13.29183 -7.25008,1.93335 -7.00841,-9.18344 -7.00841,-9.18344 0,0 2.90003,14.74183 -4.35005,10.15011 -7.25008,-4.59171 -4.59172,-11.60013 -4.59172,-11.60013 z"
       id="path2"
       inkscape:export-filename="boshedron.png"
       inkscape:export-xdpi="96"
       inkscape:export-ydpi="96" />
  </g>
</svg>
